{
  "accessors": [
    {
      "bufferView": 2,
      "componentType": 5126,
      "count": 65532,
      "max": [
        0.0,
        -0.0,
        531.843994140625
      ],
      "min": [
        -2040.0,
        -4088.0,
        -84.86092376708984
      ],
      "type": "VEC3"
    },
    {
      "bufferView": 2,
      "byteOffset": 786384,
      "componentType": 5126,
      "count": 65532,
      "max": [
        0.9678361415863037,
        0.9622431397438049,
        1.0
      ],
      "min": [
        -0.9433762431144714,
        -0.9411802887916565,
        0.20795559883117676
      ],
      "type": "VEC3"
    },
    {
      "bufferView": 3,
      "componentType": 5126,
      "count": 65532,
      "max": [
        1.4509494576486759e-05,
        -0.25014975666999817,
        0.9682072401046753,
        -1.0
      ],
      "min": [
        -1.2823711585951969e-05,
        -1.0,
        -0.9567651152610779,
        -1.0
      ],
      "type": "VEC4"
    },
    {
      "bufferView": 1,
      "componentType": 5126,
      "count": 65532,
      "max": [
        1.0,
        1.0
      ],
      "min": [
        0.0,
        0.0
      ],
      "type": "VEC2"
    },
    {
      "bufferView": 0,
      "componentType": 5125,
      "count": 360729,
      "type": "SCALAR"
    },
    {
      "bufferView": 2,
      "byteOffset": 1572768,
      "componentType": 5126,
      "count": 65532,
      "max": [
        -48.0,
        -96.0,
        606.9381103515625
      ],
      "min": [
        -2040.0,
        -4040.0,
        -75.05254364013672
      ],
      "type": "VEC3"
    },
    {
      "bufferView": 2,
      "byteOffset": 2359152,
      "componentType": 5126,
      "count": 65532,
      "max": [
        0.9610400795936584,
        0.9505075812339783,
        0.9999997615814209
      ],
      "min": [
        -0.9637919664382935,
        -0.9586048126220703,
        0.25115638971328735
      ],
      "type": "VEC3"
    },
    {
      "bufferView": 3,
      "byteOffset": 1048512,
      "componentType": 5126,
      "count": 65532,
      "max": [
        1.4650752746092621e-05,
        -0.2749185860157013,
        0.9527401328086853,
        -1.0
      ],
      "min": [
        -1.2720450285996776e-05,
        -1.0,
        -0.9614675045013428,
        -1.0
      ],
      "type": "VEC4"
    },
    {
      "bufferView": 1,
      "byteOffset": 524256,
      "componentType": 5126,
      "count": 65532,
      "max": [
        0.9882583022117615,
        1.0
      ],
      "min": [
        0.02348336949944496,
        0.023529410362243652
      ],
      "type": "VEC2"
    },
    {
      "bufferView": 0,
      "byteOffset": 1442916,
      "componentType": 5125,
      "count": 357102,
      "type": "SCALAR"
    },
    {
      "bufferView": 2,
      "byteOffset": 3145536,
      "componentType": 5126,
      "count": 19219,
      "max": [
        -32.0,
        -56.0,
        604.7072143554688
      ],
      "min": [
        -1960.0,
        -4040.0,
        -70.07716369628906
      ],
      "type": "VEC3"
    },
    {
      "bufferView": 2,
      "byteOffset": 3376164,
      "componentType": 5126,
      "count": 19219,
      "max": [
        0.9613516330718994,
        0.9505075812339783,
        0.9999951124191284
      ],
      "min": [
        -0.9510865807533264,
        -0.9293508529663086,
        0.2439170926809311
      ],
      "type": "VEC3"
    },
    {
      "bufferView": 3,
      "byteOffset": 2097024,
      "componentType": 5126,
      "count": 19219,
      "max": [
        1.4509494576486759e-05,
        -0.2664302885532379,
        0.9638542532920837,
        -1.0
      ],
      "min": [
        -1.3105264770274516e-05,
        -1.0,
        -0.9351596832275391,
        -1.0
      ],
      "type": "VEC4"
    },
    {
      "bufferView": 1,
      "byteOffset": 1048512,
      "componentType": 5126,
      "count": 19219,
      "max": [
        0.9882583022117615,
        0.960784375667572
      ],
      "min": [
        0.013698630034923553,
        0.01568627916276455
      ],
      "type": "VEC2"
    },
    {
      "bufferView": 0,
      "byteOffset": 2871324,
      "componentType": 5125,
      "count": 63999,
      "type": "SCALAR"
    }
  ],
  "asset": {
    "extras": {
      "author": "josevega (https://sketchfab.com/josevega)",
      "license": "CC-BY-4.0 (http://creativecommons.org/licenses/by/4.0/)",
      "source": "https://sketchfab.com/3d-models/free-sandy-rock-hill-013eac9da6114be0b32bab4008957ab7",
      "title": "FREE Sandy Rock Hill"
    },
    "generator": "Sketchfab-12.65.0",
    "version": "2.0"
  },
  "bufferViews": [
    {
      "buffer": 0,
      "byteLength": 3127320,
      "name": "floatBufferViews",
      "target": 34963
    },
    {
      "buffer": 0,
      "byteLength": 1202264,
      "byteOffset": 3127320,
      "byteStride": 8,
      "name": "floatBufferViews",
      "target": 34962
    },
    {
      "buffer": 0,
      "byteLength": 3606792,
      "byteOffset": 4329584,
      "byteStride": 12,
      "name": "floatBufferViews",
      "target": 34962
    },
    {
      "buffer": 0,
      "byteLength": 2404528,
      "byteOffset": 7936376,
      "byteStride": 16,
      "name": "floatBufferViews",
      "target": 34962
    }
  ],
  "buffers": [
    {
      "byteLength": 10340904,
      "uri": "scene.bin"
    }
  ],
  "extensionsRequired": [
    "KHR_materials_pbrSpecularGlossiness"
  ],
  "extensionsUsed": [
    "KHR_materials_pbrSpecularGlossiness"
  ],
  "images": [
    {
      "uri": "textures/material_0_diffuse.png"
    },
    {
      "uri": "textures/material_0_normal.png"
    }
  ],
  "materials": [
    {
      "doubleSided": true,
      "extensions": {
        "KHR_materials_pbrSpecularGlossiness": {
          "diffuseFactor": [
            1.0,
            1.0,
            1.0,
            1.0
          ],
          "diffuseTexture": {
            "index": 0
          },
          "glossinessFactor": 0.4,
          "specularFactor": [
            0.0,
            0.0,
            0.0
          ]
        }
      },
      "name": "material_0",
      "normalTexture": {
        "index": 1
      }
    }
  ],
  "meshes": [
    {
      "name": "Object_0",
      "primitives": [
        {
          "attributes": {
            "NORMAL": 1,
            "POSITION": 0,
            "TANGENT": 2,
            "TEXCOORD_0": 3
          },
          "indices": 4,
          "material": 0,
          "mode": 4
        }
      ]
    },
    {
      "name": "Object_1",
      "primitives": [
        {
          "attributes": {
            "NORMAL": 6,
            "POSITION": 5,
            "TANGENT": 7,
            "TEXCOORD_0": 8
          },
          "indices": 9,
          "material": 0,
          "mode": 4
        }
      ]
    },
    {
      "name": "Object_2",
      "primitives": [
        {
          "attributes": {
            "NORMAL": 11,
            "POSITION": 10,
            "TANGENT": 12,
            "TEXCOORD_0": 13
          },
          "indices": 14,
          "material": 0,
          "mode": 4
        }
      ]
    }
  ],
  "nodes": [
    {
      "children": [
        1
      ],
      "matrix": [
        1.0,
        0.0,
        0.0,
        0.0,
        0.0,
        2.220446049250313e-16,
        -1.0,
        0.0,
        0.0,
        1.0,
        2.220446049250313e-16,
        0.0,
        0.0,
        0.0,
        0.0,
        1.0
      ],
      "name": "Sketchfab_model"
    },
    {
      "children": [
        2,
        3,
        4
      ],
      "name": "heightmap-lowres.obj.cleaner.materialmerger.gles"
    },
    {
      "mesh": 0,
      "name": "Object_2"
    },
    {
      "mesh": 1,
      "name": "Object_3"
    },
    {
      "mesh": 2,
      "name": "Object_4"
    }
  ],
  "samplers": [
    {
      "magFilter": 9729,
      "minFilter": 9987,
      "wrapS": 10497,
      "wrapT": 10497
    }
  ],
  "scene": 0,
  "scenes": [
    {
      "name": "Sketchfab_Scene",
      "nodes": [
        0
      ]
    }
  ],
  "textures": [
    {
      "sampler": 0,
      "source": 0
    },
    {
      "sampler": 0,
      "source": 1
    }
  ]
}
