{
  "accessors": [
    {
      "bufferView": 2,
      "componentType": 5126,
      "count": 2448,
      "max": [
        1.0,
        0.9975792169570923,
        1.43055260181427
      ],
      "min": [
        -1.0,
        -0.9975792169570923,
        -1.43055260181427
      ],
      "type": "VEC3"
    },
    {
      "bufferView": 2,
      "byteOffset": 29376,
      "componentType": 5126,
      "count": 2448,
      "max": [
        1.0,
        1.0,
        1.0
      ],
      "min": [
        -1.0,
        -1.0,
        -1.0
      ],
      "type": "VEC3"
    },
    {
      "bufferView": 3,
      "componentType": 5126,
      "count": 2448,
      "max": [
        1.0,
        1.0,
        1.0,
        1.0
      ],
      "min": [
        -1.0,
        -1.0,
        -1.0,
        -1.0
      ],
      "type": "VEC4"
    },
    {
      "bufferView": 1,
      "componentType": 5126,
      "count": 2448,
      "max": [
        1.943328619003296,
        0.9889100193977356
      ],
      "min": [
        0.0058269202709198,
        -0.5081226825714111
      ],
      "type": "VEC2"
    },
    {
      "bufferView": 0,
      "componentType": 5125,
      "count": 8664,
      "type": "SCALAR"
    },
    {
      "bufferView": 2,
      "byteOffset": 58752,
      "componentType": 5126,
      "count": 1936,
      "max": [
        0.993111789226532,
        0.9908384084701538,
        0.8119717836380005
      ],
      "min": [
        -0.993111789226532,
        -0.9908384084701538,
        -0.8119717836380005
      ],
      "type": "VEC3"
    },
    {
      "bufferView": 2,
      "byteOffset": 81984,
      "componentType": 5126,
      "count": 1936,
      "max": [
        0.9915085434913635,
        0.9914888143539429,
        0.9923427104949951
      ],
      "min": [
        -0.9915085434913635,
        -0.9914888143539429,
        -0.9923427104949951
      ],
      "type": "VEC3"
    },
    {
      "bufferView": 1,
      "byteOffset": 19584,
      "componentType": 5126,
      "count": 1936,
      "max": [
        0.25005075335502625,
        0.8119717836380005
      ],
      "min": [
        -2.0184281311230734e-05,
        0.5209997296333313
      ],
      "type": "VEC2"
    },
    {
      "bufferView": 0,
      "byteOffset": 34656,
      "componentType": 5125,
      "count": 7680,
      "type": "SCALAR"
    },
    {
      "bufferView": 2,
      "byteOffset": 105216,
      "componentType": 5126,
      "count": 2204,
      "max": [
        0.6839812994003296,
        0.6884876489639282,
        1.4291008710861206
      ],
      "min": [
        -0.6839812994003296,
        -0.6884876489639282,
        -1.4291008710861206
      ],
      "type": "VEC3"
    },
    {
      "bufferView": 2,
      "byteOffset": 131664,
      "componentType": 5126,
      "count": 2204,
      "max": [
        0.9915085434913635,
        0.9914926886558533,
        0.9923536777496338
      ],
      "min": [
        -0.9915085434913635,
        -0.9914926886558533,
        -0.9923536777496338
      ],
      "type": "VEC3"
    },
    {
      "bufferView": 1,
      "byteOffset": 35072,
      "componentType": 5126,
      "count": 2204,
      "max": [
        0.2500535547733307,
        1.4305527210235596
      ],
      "min": [
        -2.258123095089104e-05,
        1.1775104999542236
      ],
      "type": "VEC2"
    },
    {
      "bufferView": 0,
      "byteOffset": 65376,
      "componentType": 5125,
      "count": 7680,
      "type": "SCALAR"
    },
    {
      "bufferView": 2,
      "byteOffset": 158112,
      "componentType": 5126,
      "count": 1568,
      "max": [
        5.728192329406738,
        5.742928981781006,
        0.4150810241699219
      ],
      "min": [
        -5.728192329406738,
        -5.742928981781006,
        -0.4150810241699219
      ],
      "type": "VEC3"
    },
    {
      "bufferView": 2,
      "byteOffset": 176928,
      "componentType": 5126,
      "count": 1568,
      "max": [
        0.9962818622589111,
        0.994036853313446,
        1.0
      ],
      "min": [
        -0.9962818622589111,
        -0.994036853313446,
        -1.0
      ],
      "type": "VEC3"
    },
    {
      "bufferView": 3,
      "byteOffset": 39168,
      "componentType": 5126,
      "count": 1568,
      "max": [
        0.9987779259681702,
        0.9970780611038208,
        0.9999737739562988,
        1.0
      ],
      "min": [
        -0.9990464448928833,
        -0.9970780611038208,
        -0.9999737739562988,
        -1.0
      ],
      "type": "VEC4"
    },
    {
      "bufferView": 1,
      "byteOffset": 52704,
      "componentType": 5126,
      "count": 1568,
      "max": [
        1.8726749420166016,
        0.986544132232666
      ],
      "min": [
        0.01564556360244751,
        0.004211588762700558
      ],
      "type": "VEC2"
    },
    {
      "bufferView": 0,
      "byteOffset": 96096,
      "componentType": 5125,
      "count": 4176,
      "type": "SCALAR"
    },
    {
      "bufferView": 2,
      "byteOffset": 195744,
      "componentType": 5126,
      "count": 1812,
      "max": [
        6.434134483337402,
        6.441895961761475,
        0.35425469279289246
      ],
      "min": [
        -6.434414386749268,
        -6.441940784454346,
        -0.35425469279289246
      ],
      "type": "VEC3"
    },
    {
      "bufferView": 2,
      "byteOffset": 217488,
      "componentType": 5126,
      "count": 1812,
      "max": [
        0.9999995231628418,
        0.9988100528717041,
        1.0
      ],
      "min": [
        -1.0,
        -0.9988100528717041,
        -1.0
      ],
      "type": "VEC3"
    },
    {
      "bufferView": 3,
      "byteOffset": 64256,
      "componentType": 5126,
      "count": 1812,
      "max": [
        0.9999871850013733,
        0.9994845390319824,
        0.9997981786727905,
        1.0
      ],
      "min": [
        -0.9999794960021973,
        -0.9994845986366272,
        -0.9997981786727905,
        -1.0
      ],
      "type": "VEC4"
    },
    {
      "bufferView": 1,
      "byteOffset": 65248,
      "componentType": 5126,
      "count": 1812,
      "max": [
        0.7882856130599976,
        0.999946653842926
      ],
      "min": [
        0.2834421694278717,
        5.336704998626374e-05
      ],
      "type": "VEC2"
    },
    {
      "bufferView": 0,
      "byteOffset": 112800,
      "componentType": 5125,
      "count": 8568,
      "type": "SCALAR"
    },
    {
      "bufferView": 2,
      "byteOffset": 239232,
      "componentType": 5126,
      "count": 624,
      "max": [
        6.022365093231201,
        6.027462005615234,
        0.42566120624542236
      ],
      "min": [
        -6.024394512176514,
        -6.0294647216796875,
        -0.42566120624542236
      ],
      "type": "VEC3"
    },
    {
      "bufferView": 2,
      "byteOffset": 246720,
      "componentType": 5126,
      "count": 624,
      "max": [
        0.9750416874885559,
        0.9749881625175476,
        1.0
      ],
      "min": [
        -0.9750171899795532,
        -0.9750005006790161,
        -1.0
      ],
      "type": "VEC3"
    },
    {
      "bufferView": 1,
      "byteOffset": 79744,
      "componentType": 5126,
      "count": 624,
      "max": [
        0.8499035835266113,
        0.0582926869392395
      ],
      "min": [
        0.788522481918335,
        5.336704998626374e-05
      ],
      "type": "VEC2"
    },
    {
      "bufferView": 0,
      "byteOffset": 147072,
      "componentType": 5125,
      "count": 2880,
      "type": "SCALAR"
    },
    {
      "bufferView": 2,
      "byteOffset": 254208,
      "componentType": 5126,
      "count": 512,
      "max": [
        6.481338977813721,
        6.481338977813721,
        2.821699069954775e-07
      ],
      "min": [
        -6.481338977813721,
        -6.481338977813721,
        -0.6867086291313171
      ],
      "type": "VEC3"
    },
    {
      "bufferView": 2,
      "byteOffset": 260352,
      "componentType": 5126,
      "count": 512,
      "max": [
        1.0,
        1.0,
        1.0
      ],
      "min": [
        -1.0,
        -1.0,
        -1.0
      ],
      "type": "VEC3"
    },
    {
      "bufferView": 3,
      "byteOffset": 93248,
      "componentType": 5126,
      "count": 512,
      "max": [
        1.0,
        1.0,
        1.0,
        1.0
      ],
      "min": [
        0.0,
        0.0,
        0.0,
        1.0
      ],
      "type": "VEC4"
    },
    {
      "bufferView": 1,
      "byteOffset": 84736,
      "componentType": 5126,
      "count": 512,
      "max": [
        0.0,
        0.0
      ],
      "min": [
        0.0,
        0.0
      ],
      "type": "VEC2"
    },
    {
      "bufferView": 1,
      "byteOffset": 88832,
      "componentType": 5126,
      "count": 512,
      "max": [
        0.0,
        0.0
      ],
      "min": [
        0.0,
        0.0
      ],
      "type": "VEC2"
    },
    {
      "bufferView": 0,
      "byteOffset": 158592,
      "componentType": 5125,
      "count": 1536,
      "type": "SCALAR"
    },
    {
      "bufferView": 2,
      "byteOffset": 266496,
      "componentType": 5126,
      "count": 192,
      "max": [
        1.0,
        1.0,
        1.0
      ],
      "min": [
        -1.0,
        -1.0,
        -1.0
      ],
      "type": "VEC3"
    },
    {
      "bufferView": 2,
      "byteOffset": 268800,
      "componentType": 5126,
      "count": 192,
      "max": [
        0.9951848387718201,
        1.0,
        0.9951848387718201
      ],
      "min": [
        -0.9951848983764648,
        -1.0,
        -0.9951847791671753
      ],
      "type": "VEC3"
    },
    {
      "bufferView": 1,
      "byteOffset": 92928,
      "componentType": 5126,
      "count": 192,
      "max": [
        1.0,
        1.0
      ],
      "min": [
        0.0,
        0.01000000536441803
      ],
      "type": "VEC2"
    },
    {
      "bufferView": 0,
      "byteOffset": 164736,
      "componentType": 5125,
      "count": 372,
      "type": "SCALAR"
    },
    {
      "bufferView": 2,
      "byteOffset": 271104,
      "componentType": 5126,
      "count": 179,
      "max": [
        1.0,
        1.0,
        1.0
      ],
      "min": [
        -1.0,
        -1.0,
        -1.0
      ],
      "type": "VEC3"
    },
    {
      "bufferView": 2,
      "byteOffset": 273252,
      "componentType": 5126,
      "count": 179,
      "max": [
        0.9935514330863953,
        0.9935514330863953,
        0.9935514330863953
      ],
      "min": [
        -0.9935514330863953,
        -0.9935514330863953,
        -0.689854621887207
      ],
      "type": "VEC3"
    },
    {
      "bufferView": 1,
      "byteOffset": 94464,
      "componentType": 5126,
      "count": 179,
      "max": [
        0.875,
        1.0
      ],
      "min": [
        0.125,
        0.0
      ],
      "type": "VEC2"
    },
    {
      "bufferView": 0,
      "byteOffset": 166224,
      "componentType": 5125,
      "count": 780,
      "type": "SCALAR"
    }
  ],
  "asset": {
    "extras": {
      "author": "raeganmaddox (https://sketchfab.com/raeganmaddox)",
      "license": "CC-BY-4.0 (http://creativecommons.org/licenses/by/4.0/)",
      "source": "https://sketchfab.com/3d-models/wagon-wheel-522bf736cae646a998522d666430a5a1",
      "title": "Wagon Wheel"
    },
    "generator": "Sketchfab-12.68.0",
    "version": "2.0"
  },
  "bufferViews": [
    {
      "buffer": 0,
      "byteLength": 169344,
      "name": "floatBufferViews",
      "target": 34963
    },
    {
      "buffer": 0,
      "byteLength": 95896,
      "byteOffset": 169344,
      "byteStride": 8,
      "name": "floatBufferViews",
      "target": 34962
    },
    {
      "buffer": 0,
      "byteLength": 275400,
      "byteOffset": 265240,
      "byteStride": 12,
      "name": "floatBufferViews",
      "target": 34962
    },
    {
      "buffer": 0,
      "byteLength": 101440,
      "byteOffset": 540640,
      "byteStride": 16,
      "name": "floatBufferViews",
      "target": 34962
    }
  ],
  "buffers": [
    {
      "byteLength": 642080,
      "uri": "scene.bin"
    }
  ],
  "images": [
    {
      "uri": "textures/Wood_baseColor.png"
    },
    {
      "uri": "textures/Wood_normal.png"
    },
    {
      "uri": "textures/Steel_baseColor.jpeg"
    }
  ],
  "materials": [
    {
      "doubleSided": true,
      "name": "Wood",
      "normalTexture": {
        "index": 1
      },
      "pbrMetallicRoughness": {
        "baseColorTexture": {
          "index": 0
        },
        "metallicFactor": 0.0,
        "roughnessFactor": 0.712121
      }
    },
    {
      "doubleSided": true,
      "name": "Steel",
      "pbrMetallicRoughness": {
        "baseColorFactor": [
          0.45167307154410247,
          0.45167307154410247,
          0.45167307154410247,
          1.0
        ],
        "baseColorTexture": {
          "index": 2
        },
        "metallicFactor": 0.5976069878023569,
        "roughnessFactor": 0.5
      }
    },
    {
      "doubleSided": true,
      "name": "Steel.001",
      "pbrMetallicRoughness": {
        "baseColorTexture": {
          "index": 2
        },
        "metallicFactor": 0.2996585754417541,
        "roughnessFactor": 0.2570945165330966
      }
    }
  ],
  "meshes": [
    {
      "name": "Object_0",
      "primitives": [
        {
          "attributes": {
            "NORMAL": 1,
            "POSITION": 0,
            "TANGENT": 2,
            "TEXCOORD_0": 3
          },
          "indices": 4,
          "material": 0,
          "mode": 4
        }
      ]
    },
    {
      "name": "Object_1",
      "primitives": [
        {
          "attributes": {
            "NORMAL": 6,
            "POSITION": 5,
            "TEXCOORD_0": 7
          },
          "indices": 8,
          "material": 1,
          "mode": 4
        }
      ]
    },
    {
      "name": "Object_2",
      "primitives": [
        {
          "attributes": {
            "NORMAL": 10,
            "POSITION": 9,
            "TEXCOORD_0": 11
          },
          "indices": 12,
          "material": 1,
          "mode": 4
        }
      ]
    },
    {
      "name": "Object_3",
      "primitives": [
        {
          "attributes": {
            "NORMAL": 14,
            "POSITION": 13,
            "TANGENT": 15,
            "TEXCOORD_0": 16
          },
          "indices": 17,
          "material": 0,
          "mode": 4
        }
      ]
    },
    {
      "name": "Object_4",
      "primitives": [
        {
          "attributes": {
            "NORMAL": 19,
            "POSITION": 18,
            "TANGENT": 20,
            "TEXCOORD_0": 21
          },
          "indices": 22,
          "material": 0,
          "mode": 4
        }
      ]
    },
    {
      "name": "Object_5",
      "primitives": [
        {
          "attributes": {
            "NORMAL": 24,
            "POSITION": 23,
            "TEXCOORD_0": 25
          },
          "indices": 26,
          "material": 1,
          "mode": 4
        }
      ]
    },
    {
      "name": "Object_6",
      "primitives": [
        {
          "attributes": {
            "COLOR_0": 29,
            "NORMAL": 28,
            "POSITION": 27,
            "TEXCOORD_0": 30,
            "TEXCOORD_1": 31
          },
          "indices": 32,
          "material": 2,
          "mode": 4
        }
      ]
    },
    {
      "name": "Object_7",
      "primitives": [
        {
          "attributes": {
            "NORMAL": 34,
            "POSITION": 33,
            "TEXCOORD_0": 35
          },
          "indices": 36,
          "material": 1,
          "mode": 4
        }
      ]
    },
    {
      "name": "Object_8",
      "primitives": [
        {
          "attributes": {
            "NORMAL": 38,
            "POSITION": 37,
            "TEXCOORD_0": 39
          },
          "indices": 40,
          "material": 1,
          "mode": 4
        }
      ]
    }
  ],
  "nodes": [
    {
      "children": [
        1
      ],
      "matrix": [
        1.0,
        0.0,
        0.0,
        0.0,
        0.0,
        2.220446049250313e-16,
        -1.0,
        0.0,
        0.0,
        1.0,
        2.220446049250313e-16,
        0.0,
        0.0,
        0.0,
        0.0,
        1.0
      ],
      "name": "Sketchfab_model"
    },
    {
      "children": [
        2
      ],
      "name": "root"
    },
    {
      "children": [
        3,
        5,
        7,
        9,
        11,
        14,
        16,
        18
      ],
      "matrix": [
        1.0,
        0.0,
        0.0,
        0.0,
        0.0,
        2.220446049250313e-16,
        1.0,
        0.0,
        0.0,
        -1.0,
        2.220446049250313e-16,
        0.0,
        0.0,
        0.0,
        0.0,
        1.0
      ],
      "name": "GLTF_SceneRootNode"
    },
    {
      "children": [
        4
      ],
      "name": "Plane_1"
    },
    {
      "mesh": 0,
      "name": "Object_4"
    },
    {
      "children": [
        6
      ],
      "name": "Plane.001_2"
    },
    {
      "mesh": 1,
      "name": "Object_6"
    },
    {
      "children": [
        8
      ],
      "name": "Plane.002_3"
    },
    {
      "mesh": 2,
      "name": "Object_8"
    },
    {
      "children": [
        10
      ],
      "matrix": [
        0.9999224902714187,
        0.012450439727360166,
        0.0,
        0.0,
        -0.012450439727360166,
        0.9999224902714187,
        0.0,
        0.0,
        0.0,
        0.0,
        1.0,
        0.0,
        0.0,
        0.0,
        0.0,
        1.0
      ],
      "name": "Plane.003_4"
    },
    {
      "mesh": 3,
      "name": "Object_10"
    },
    {
      "children": [
        12,
        13
      ],
      "matrix": [
        1.0,
        0.0,
        0.0,
        0.0,
        0.0,
        1.0,
        0.0,
        0.0,
        0.0,
        0.0,
        1.0,
        0.0,
        0.0,
        0.0,
        -0.028224289417266846,
        1.0
      ],
      "name": "Circle.001_6"
    },
    {
      "mesh": 4,
      "name": "Object_12"
    },
    {
      "mesh": 5,
      "name": "Object_13"
    },
    {
      "children": [
        15
      ],
      "matrix": [
        1.0,
        0.0,
        0.0,
        0.0,
        0.0,
        1.0,
        0.0,
        0.0,
        0.0,
        0.0,
        1.0,
        0.0,
        0.0,
        0.0,
        0.34052956104278564,
        1.0
      ],
      "name": "Circle_7"
    },
    {
      "mesh": 6,
      "name": "Object_15"
    },
    {
      "children": [
        17
      ],
      "matrix": [
        0.5915765166282654,
        0.0,
        0.0,
        0.0,
        0.0,
        0.0,
        0.5915765166282654,
        0.0,
        0.0,
        -0.5915765166282654,
        0.0,
        0.0,
        0.0,
        0.0,
        0.6014202833175659,
        1.0
      ],
      "name": "Cylinder_8"
    },
    {
      "mesh": 7,
      "name": "Object_17"
    },
    {
      "children": [
        19
      ],
      "matrix": [
        0.27038872241973877,
        0.0,
        0.0,
        0.0,
        0.0,
        0.27038872241973877,
        0.0,
        0.0,
        0.0,
        0.0,
        0.27038872241973877,
        0.0,
        0.0,
        0.0,
        1.115658164024353,
        1.0
      ],
      "name": "Cube_9"
    },
    {
      "mesh": 8,
      "name": "Object_19"
    }
  ],
  "samplers": [
    {
      "magFilter": 9729,
      "minFilter": 9987,
      "wrapS": 10497,
      "wrapT": 10497
    }
  ],
  "scene": 0,
  "scenes": [
    {
      "name": "Sketchfab_Scene",
      "nodes": [
        0
      ]
    }
  ],
  "textures": [
    {
      "sampler": 0,
      "source": 0
    },
    {
      "sampler": 0,
      "source": 1
    },
    {
      "sampler": 0,
      "source": 2
    }
  ]
}
